<svg xmlns="http://www.w3.org/2000/svg" viewBox="0 0 800 600" preserveAspectRatio="xMidYMid meet" aria-label="CapStoryBoard hero">
  <g transform="translate(400, 260)">
    <!-- Left scattered papers (cut pieces flying off) -->
    <g transform="translate(-160, 40)">
      <g transform="translate(-30, 20)">
        <g transform="scale(1, 0.577) rotate(-45)">
          <g transform="rotate(-15)">
            <rect x="-45" y="-25" width="90" height="50" rx="4" fill="#ffffff" stroke="#d2d2d7" stroke-width="2" />
            <rect x="-40" y="-20" width="80" height="40" rx="2" fill="#ff4d4f" opacity="0.15" />
            <circle cx="0" cy="0" r="10" fill="#ff4d4f" opacity="0.3" />
            <path d="M -25 20 Q 0 -15 25 20" fill="none" stroke="#ff4d4f" stroke-width="3" opacity="0.3" />
            <rect x="-40" y="-20" width="16" height="10" rx="1" fill="#ff4d4f" opacity="0.8" />
            <text x="-32" y="-13" font-size="6" fill="#ffffff" font-family="ui-monospace, 'JetBrains Mono', Consolas, monospace" text-anchor="middle" font-weight="700">C03</text>
          </g>
        </g>
      </g>
      <g transform="translate(10, -40)">
        <g transform="scale(1, 0.577) rotate(-45)">
          <g transform="rotate(-5)">
            <rect x="-45" y="-25" width="90" height="50" rx="4" fill="#ffffff" stroke="#d2d2d7" stroke-width="2" />
            <rect x="-40" y="-20" width="80" height="40" rx="2" fill="#ff4d4f" opacity="0.15" />
            <circle cx="0" cy="0" r="10" fill="#ff4d4f" opacity="0.3" />
            <path d="M -25 20 Q 0 -15 25 20" fill="none" stroke="#ff4d4f" stroke-width="3" opacity="0.3" />
            <rect x="-40" y="-20" width="16" height="10" rx="1" fill="#ff4d4f" opacity="0.8" />
            <text x="-32" y="-13" font-size="6" fill="#ffffff" font-family="ui-monospace, 'JetBrains Mono', Consolas, monospace" text-anchor="middle" font-weight="700">C02</text>
          </g>
        </g>
      </g>
      <g transform="translate(70, 10)">
        <g transform="scale(1, 0.577) rotate(-45)">
          <g transform="rotate(8)">
            <rect x="-45" y="-25" width="90" height="50" rx="4" fill="#ffffff" stroke="#d2d2d7" stroke-width="2" />
            <rect x="-40" y="-20" width="80" height="40" rx="2" fill="#ff4d4f" opacity="0.15" />
            <circle cx="0" cy="0" r="10" fill="#ff4d4f" opacity="0.3" />
            <path d="M -25 20 Q 0 -15 25 20" fill="none" stroke="#ff4d4f" stroke-width="3" opacity="0.3" />
            <rect x="-40" y="-20" width="16" height="10" rx="1" fill="#ff4d4f" opacity="0.8" />
            <text x="-32" y="-13" font-size="6" fill="#ffffff" font-family="ui-monospace, 'JetBrains Mono', Consolas, monospace" text-anchor="middle" font-weight="700">C01</text>
          </g>
        </g>
      </g>
    </g>

    <!-- Right neat paper stack (storyboard master) -->
    <g transform="translate(140, 20)">
        <g transform="translate(0, 0)">
          <g transform="scale(1, 0.577) rotate(-45)">
            <rect x="-110" y="-150" width="220" height="300" rx="6" fill="#f5f5f7" stroke="#d2d2d7" stroke-width="2" opacity="0.5" />
          </g>
        </g>
        <g transform="translate(0, -8)">
          <g transform="scale(1, 0.577) rotate(-45)">
            <rect x="-110" y="-150" width="220" height="300" rx="6" fill="#f5f5f7" stroke="#d2d2d7" stroke-width="2" opacity="0.5" />
          </g>
        </g>
        <g transform="translate(0, -16)">
          <g transform="scale(1, 0.577) rotate(-45)">
            <rect x="-110" y="-150" width="220" height="300" rx="6" fill="#f5f5f7" stroke="#d2d2d7" stroke-width="2" opacity="0.5" />
          </g>
        </g>
        <g transform="translate(0, -24)">
          <g transform="scale(1, 0.577) rotate(-45)">
            <rect x="-110" y="-150" width="220" height="300" rx="6" fill="#f5f5f7" stroke="#d2d2d7" stroke-width="2" opacity="0.5" />
          </g>
        </g>
        <g transform="translate(0, -32)">
          <g transform="scale(1, 0.577) rotate(-45)">
            <rect x="-110" y="-150" width="220" height="300" rx="6" fill="#f5f5f7" stroke="#d2d2d7" stroke-width="2" opacity="0.5" />
          </g>
        </g>
        <g transform="translate(0, -40)">
          <g transform="scale(1, 0.577) rotate(-45)">
            <rect x="-110" y="-150" width="220" height="300" rx="6" fill="#ffffff" stroke="#d2d2d7" stroke-width="2" opacity="1" />
            <g>
              <rect x="-95" y="-135" width="190" height="12" rx="2" fill="#f5f5f7" />
              <rect x="-90" y="-132" width="40" height="6" rx="1" fill="#d2d2d7" opacity="0.5" />
              <rect x="50" y="-132" width="40" height="6" rx="1" fill="#d2d2d7" opacity="0.5" />
              <line x1="-95" y1="-115" x2="-95" y2="135" stroke="#d2d2d7" stroke-width="1" opacity="0.5" />
              <line x1="-75" y1="-115" x2="-75" y2="135" stroke="#d2d2d7" stroke-width="1" opacity="0.5" />
              <line x1="15"  y1="-115" x2="15"  y2="135" stroke="#d2d2d7" stroke-width="1" opacity="0.5" />
              <line x1="75"  y1="-115" x2="75"  y2="135" stroke="#d2d2d7" stroke-width="1" opacity="0.5" />
              <line x1="95"  y1="-115" x2="95"  y2="135" stroke="#d2d2d7" stroke-width="1" opacity="0.5" />
              <g>
              <line x1="-95" y1="-115" x2="95" y2="-115" stroke="#d2d2d7" stroke-width="1" opacity="0.5" />
              <rect x="-70" y="-110" width="80" height="40" rx="2" fill="#ff4d4f" opacity="0.1" />
              <circle cx="-30" cy="-90" r="8" fill="#ff4d4f" opacity="0.2" />
              <path d="M -50 -70 Q -30 -100 -10 -70" fill="none" stroke="#ff4d4f" stroke-width="2" opacity="0.2" />
              <line x1="22" y1="-100" x2="68" y2="-100" stroke="#d2d2d7" stroke-width="2" stroke-linecap="round" opacity="0.6" />
              <line x1="22" y1="-90" x2="55" y2="-90" stroke="#d2d2d7" stroke-width="2" stroke-linecap="round" opacity="0.6" />
              <line x1="22" y1="-80" x2="60" y2="-80" stroke="#d2d2d7" stroke-width="2" stroke-linecap="round" opacity="0.6" />
              </g>
              <g>
              <line x1="-95" y1="-65" x2="95" y2="-65" stroke="#d2d2d7" stroke-width="1" opacity="0.5" />
              <rect x="-70" y="-60" width="80" height="40" rx="2" fill="#ff4d4f" opacity="0.1" />
              <circle cx="-30" cy="-40" r="8" fill="#ff4d4f" opacity="0.2" />
              <path d="M -50 -20 Q -30 -50 -10 -20" fill="none" stroke="#ff4d4f" stroke-width="2" opacity="0.2" />
              <line x1="22" y1="-50" x2="68" y2="-50" stroke="#d2d2d7" stroke-width="2" stroke-linecap="round" opacity="0.6" />
              <line x1="22" y1="-40" x2="55" y2="-40" stroke="#d2d2d7" stroke-width="2" stroke-linecap="round" opacity="0.6" />
              <line x1="22" y1="-30" x2="60" y2="-30" stroke="#d2d2d7" stroke-width="2" stroke-linecap="round" opacity="0.6" />
              </g>
              <g>
              <line x1="-95" y1="-15" x2="95" y2="-15" stroke="#d2d2d7" stroke-width="1" opacity="0.5" />
              <rect x="-70" y="-10" width="80" height="40" rx="2" fill="none" stroke="#d2d2d7" stroke-width="1.5" stroke-dasharray="4 4" opacity="0.5" />
              <line x1="22" y1="0" x2="68" y2="0" stroke="#d2d2d7" stroke-width="2" stroke-linecap="round" opacity="0.6" />
              <line x1="22" y1="10" x2="55" y2="10" stroke="#d2d2d7" stroke-width="2" stroke-linecap="round" opacity="0.6" />
              <line x1="22" y1="20" x2="60" y2="20" stroke="#d2d2d7" stroke-width="2" stroke-linecap="round" opacity="0.6" />
              </g>
              <g>
              <line x1="-95" y1="35" x2="95" y2="35" stroke="#d2d2d7" stroke-width="1" opacity="0.5" />
              <rect x="-70" y="40" width="80" height="40" rx="2" fill="none" stroke="#d2d2d7" stroke-width="1.5" stroke-dasharray="4 4" opacity="0.5" />
              <line x1="22" y1="50" x2="68" y2="50" stroke="#d2d2d7" stroke-width="2" stroke-linecap="round" opacity="0.6" />
              <line x1="22" y1="60" x2="55" y2="60" stroke="#d2d2d7" stroke-width="2" stroke-linecap="round" opacity="0.6" />
              <line x1="22" y1="70" x2="60" y2="70" stroke="#d2d2d7" stroke-width="2" stroke-linecap="round" opacity="0.6" />
              </g>
              <g>
              <line x1="-95" y1="85" x2="95" y2="85" stroke="#d2d2d7" stroke-width="1" opacity="0.5" />
              <rect x="-70" y="90" width="80" height="40" rx="2" fill="#ff4d4f" opacity="0.1" />
              <circle cx="-30" cy="110" r="8" fill="#ff4d4f" opacity="0.2" />
              <path d="M -50 130 Q -30 100 -10 130" fill="none" stroke="#ff4d4f" stroke-width="2" opacity="0.2" />
              <line x1="22" y1="100" x2="68" y2="100" stroke="#d2d2d7" stroke-width="2" stroke-linecap="round" opacity="0.6" />
              <line x1="22" y1="110" x2="55" y2="110" stroke="#d2d2d7" stroke-width="2" stroke-linecap="round" opacity="0.6" />
              <line x1="22" y1="120" x2="60" y2="120" stroke="#d2d2d7" stroke-width="2" stroke-linecap="round" opacity="0.6" />
              </g>
              <line x1="-95" y1="135" x2="95" y2="135" stroke="#d2d2d7" stroke-width="1" opacity="0.5" />
            </g>
          </g>
        </g>
    </g>

    <!-- Center scissors (cutting through the paper plane) -->
    <g transform="translate(-10, -30)">
      <g transform="scale(1, 0.577) rotate(-45)">
        <g transform="rotate(15)">
          <path d="M -30,5 L 60,0 L 100,-5 L 60,-10 Z" fill="#cbd5e1" stroke="#94a3b8" stroke-width="1" />
          <path d="M -30,-5 L 60,0 L 100,5 L 60,10 Z" fill="#94a3b8" stroke="#64748b" stroke-width="1" />
          <ellipse cx="-50" cy="-20" rx="25" ry="15" fill="none" stroke="#ff4d4f" stroke-width="10" />
          <ellipse cx="-50" cy="20" rx="25" ry="15" fill="none" stroke="#ff4d4f" stroke-width="10" />
          <circle cx="20" cy="0" r="5" fill="#1d1d1f" />
        </g>
      </g>
    </g>
  </g>

  <!-- Wordmark -->
  <g transform="translate(400, 480)">
    <text x="0" y="0" text-anchor="middle" font-family="system-ui, -apple-system, 'Segoe UI', 'Plus Jakarta Sans', sans-serif" font-weight="800" font-size="46" fill="#1d1d1f" letter-spacing="8">CAP STORYBOARD</text>
    <text x="0" y="40" text-anchor="middle" font-family="system-ui, -apple-system, 'Segoe UI', 'Plus Jakarta Sans', sans-serif" font-weight="600" font-size="16" fill="#ff4d4f" letter-spacing="12">REALTIME SYNC</text>
  </g>
</svg>
